<svg width="130" height="130" viewBox="0 0 130 130" fill="none" xmlns="http://www.w3.org/2000/svg">
<path fill-rule="evenodd" clip-rule="evenodd" d="M65.8124 55.25C62.6713 55.25 60.1249 57.7964 60.1249 60.9375C60.1249 64.0786 62.6713 66.625 65.8124 66.625C68.9535 66.625 71.4999 64.0786 71.4999 60.9375C71.4999 57.7964 68.9535 55.25 65.8124 55.25ZM56.8749 60.9375C56.8749 56.0015 60.8763 52 65.8124 52C70.7484 52 74.7499 56.0015 74.7499 60.9375C74.7499 65.8735 70.7484 69.875 65.8124 69.875C60.8763 69.875 56.8749 65.8735 56.8749 60.9375Z" fill="#150941"/>
<path fill-rule="evenodd" clip-rule="evenodd" d="M57.6874 92.625C57.6874 91.7275 58.4149 91 59.3124 91H60.9374C61.8348 91 62.5624 91.7275 62.5624 92.625C62.5624 93.5225 61.8348 94.25 60.9374 94.25H59.3124C58.4149 94.25 57.6874 93.5225 57.6874 92.625Z" fill="#150941"/>
<path fill-rule="evenodd" clip-rule="evenodd" d="M61.8459 41.6996C62.078 41.0548 62.6896 40.625 63.3749 40.625H68.2499C68.9351 40.625 69.5467 41.0548 69.7788 41.6996L71.0091 45.1169L73.2541 46.1374L76.4607 44.5341C77.0863 44.2213 77.8418 44.3439 78.3364 44.8385L81.9114 48.4135C82.406 48.908 82.5286 49.6636 82.2158 50.2892L80.5889 53.5431L81.5024 55.8775L84.9778 56.9469C85.6596 57.1567 86.1249 57.7866 86.1249 58.5V63.5375C86.1249 64.2301 85.6859 64.8466 85.0314 65.0731L81.5007 66.2953L80.5956 68.5078L82.2158 71.7483C82.5349 72.3863 82.4004 73.1579 81.8844 73.6505L78.3094 77.063C77.8281 77.5224 77.1152 77.642 76.5103 77.3647L73.2507 75.8707L70.9965 76.7929L69.7788 80.1754C69.5467 80.8202 68.9351 81.25 68.2499 81.25H63.3749C62.6896 81.25 62.078 80.8202 61.8459 80.1754L60.6282 76.7929L58.3741 75.8707L55.1144 77.3647C54.5095 77.642 53.7967 77.5224 53.3154 77.063L49.7404 73.6505C49.2243 73.1579 49.0899 72.3863 49.4089 71.7483L51.0292 68.5078L50.124 66.2953L46.5933 65.0731C45.9388 64.8466 45.4999 64.2301 45.4999 63.5375V58.5C45.4999 57.7866 45.9652 57.1567 46.647 56.9469L50.1224 55.8775L51.0359 53.5431L49.4089 50.2892C49.0961 49.6636 49.2187 48.908 49.7133 48.4135L53.2883 44.8385C53.7829 44.3439 54.5385 44.2213 55.1641 44.5341L58.3707 46.1374L60.6157 45.1169L61.8459 41.6996ZM64.517 43.875L63.4413 46.8629C63.2928 47.2754 62.9839 47.6104 62.5848 47.7918L59.0098 49.4168C58.5634 49.6198 58.0492 49.6102 57.6107 49.3909L54.7582 47.9647L52.8396 49.8834L54.2658 52.7358C54.4715 53.1471 54.4932 53.6264 54.3256 54.0546L52.8631 57.7921C52.6826 58.2536 52.3014 58.6074 51.8278 58.7531L48.7499 59.7002V62.3804L51.8814 63.4644C52.3228 63.6172 52.6771 63.9525 52.8539 64.3847L54.3164 67.9597C54.4938 68.3934 54.4754 68.8826 54.2658 69.3017L52.8526 72.1282L54.7622 73.9511L57.6603 72.6228C58.0689 72.4355 58.5367 72.4258 58.9527 72.596L62.5277 74.0585C62.9535 74.2327 63.2855 74.5792 63.4413 75.0121L64.517 78H67.1078L68.1834 75.0121C68.3393 74.5792 68.6713 74.2327 69.0971 74.0585L72.6721 72.596C73.088 72.4258 73.5559 72.4355 73.9644 72.6228L76.8626 73.9511L78.7722 72.1282L77.3589 69.3017C77.1494 68.8826 77.1309 68.3934 77.3084 67.9597L78.7709 64.3847C78.9477 63.9525 79.302 63.6172 79.7433 63.4644L82.8749 62.3804V59.7002L79.797 58.7531C79.3234 58.6074 78.9422 58.2536 78.7616 57.7921L77.2991 54.0546C77.1315 53.6264 77.1533 53.1471 77.3589 52.7358L78.7851 49.8834L76.8665 47.9647L74.0141 49.3909C73.5755 49.6102 73.0614 49.6198 72.6149 49.4168L69.04 47.7918C68.6408 47.6104 68.3319 47.2754 68.1834 46.8629L67.1078 43.875H64.517Z" fill="#150941"/>
<path fill-rule="evenodd" clip-rule="evenodd" d="M64.1874 92.625C64.1874 91.7275 64.9149 91 65.8124 91H77.1874C78.0848 91 78.8124 91.7275 78.8124 92.625C78.8124 93.5225 78.0848 94.25 77.1874 94.25H65.8124C64.9149 94.25 64.1874 93.5225 64.1874 92.625Z" fill="#150941"/>
<path fill-rule="evenodd" clip-rule="evenodd" d="M73.5485 104.869C74.4149 105.103 74.9276 105.995 74.6937 106.861C73.6273 110.811 70.7703 114.562 66.1374 114.562C61.5203 114.562 57.8661 111.024 56.9145 106.794C56.7175 105.919 57.2676 105.049 58.1432 104.852C59.0187 104.655 59.8882 105.205 60.0852 106.081C60.7586 109.074 63.2794 111.312 66.1374 111.312C68.6545 111.312 70.6725 109.286 71.556 106.014C71.79 105.147 72.682 104.635 73.5485 104.869Z" fill="#150941"/>
<path fill-rule="evenodd" clip-rule="evenodd" d="M65.8124 16.25C66.7098 16.25 67.4374 16.9775 67.4374 17.875V26C67.4374 26.8975 66.7098 27.625 65.8124 27.625C64.9149 27.625 64.1874 26.8975 64.1874 26V17.875C64.1874 16.9775 64.9149 16.25 65.8124 16.25Z" fill="#150941"/>
<path fill-rule="evenodd" clip-rule="evenodd" d="M21.1249 61.75C21.1249 60.8525 21.8524 60.125 22.7499 60.125H30.8749C31.7723 60.125 32.4999 60.8525 32.4999 61.75C32.4999 62.6475 31.7723 63.375 30.8749 63.375H22.7499C21.8524 63.375 21.1249 62.6475 21.1249 61.75Z" fill="#150941"/>
<path fill-rule="evenodd" clip-rule="evenodd" d="M27.9098 46.5063C28.2515 45.6764 29.2012 45.2807 30.0311 45.6224L32.7936 46.7599C33.6235 47.1016 34.0192 48.0514 33.6775 48.8812C33.3358 49.7111 32.386 50.1068 31.5562 49.7651L28.7937 48.6276C27.9638 48.2859 27.5681 47.3361 27.9098 46.5063Z" fill="#150941"/>
<path fill-rule="evenodd" clip-rule="evenodd" d="M49.6482 24.0591C50.4509 23.6577 51.427 23.9831 51.8283 24.7858L53.4533 28.0358C53.8547 28.8385 53.5293 29.8146 52.7266 30.216C51.9239 30.6173 50.9478 30.292 50.5464 29.4892L48.9214 26.2392C48.5201 25.4365 48.8454 24.4604 49.6482 24.0591Z" fill="#150941"/>
<path fill-rule="evenodd" clip-rule="evenodd" d="M32.9758 28.426C33.6104 27.7914 34.6393 27.7914 35.2739 28.426L41.7739 34.926C42.4085 35.5606 42.4085 36.5895 41.7739 37.2241C41.1393 37.8587 40.1104 37.8587 39.4758 37.2241L32.9758 30.7241C32.3412 30.0895 32.3412 29.0606 32.9758 28.426Z" fill="#150941"/>
<path fill-rule="evenodd" clip-rule="evenodd" d="M99.1249 61.75C99.1249 60.8525 99.8524 60.125 100.75 60.125H108.875C109.772 60.125 110.5 60.8525 110.5 61.75C110.5 62.6475 109.772 63.375 108.875 63.375H100.75C99.8524 63.375 99.1249 62.6475 99.1249 61.75Z" fill="#150941"/>
<path fill-rule="evenodd" clip-rule="evenodd" d="M103.715 46.5063C104.057 47.3361 103.661 48.2859 102.831 48.6276L100.069 49.7651C99.2387 50.1068 98.289 49.7111 97.9473 48.8812C97.6056 48.0514 98.0013 47.1016 98.8312 46.7599L101.594 45.6224C102.424 45.2807 103.373 45.6764 103.715 46.5063Z" fill="#150941"/>
<path fill-rule="evenodd" clip-rule="evenodd" d="M81.9766 24.0591C82.7793 24.4604 83.1047 25.4365 82.7033 26.2392L81.0783 29.4892C80.677 30.292 79.7009 30.6173 78.8982 30.216C78.0954 29.8146 77.7701 28.8385 78.1714 28.0358L79.7964 24.7858C80.1978 23.9831 81.1739 23.6577 81.9766 24.0591Z" fill="#150941"/>
<path fill-rule="evenodd" clip-rule="evenodd" d="M98.6489 28.426C99.2835 29.0606 99.2835 30.0895 98.6489 30.7241L92.1489 37.2241C91.5143 37.8587 90.4854 37.8587 89.8508 37.2241C89.2162 36.5895 89.2162 35.5606 89.8508 34.926L96.3508 28.426C96.9854 27.7914 98.0143 27.7914 98.6489 28.426Z" fill="#150941"/>
<path fill-rule="evenodd" clip-rule="evenodd" d="M87.4364 79.2885C88.071 79.9231 88.071 80.9519 87.4364 81.5865C87.2455 81.7775 87.0506 81.9748 86.8514 82.1765C85.2814 83.7661 83.4449 85.6255 81.1641 86.7659C80.3614 87.1673 79.3853 86.8419 78.9839 86.0392C78.5826 85.2365 78.9079 84.2604 79.7107 83.8591C81.4782 82.9753 82.9184 81.524 84.5438 79.886C84.739 79.6893 84.9369 79.4899 85.1383 79.2885C85.7729 78.6538 86.8018 78.6538 87.4364 79.2885Z" fill="#150941"/>
<path fill-rule="evenodd" clip-rule="evenodd" d="M65.8124 34.125C50.9473 34.125 38.9999 46.0725 38.9999 60.9375C38.9999 70.5723 44.1988 79.0059 51.8812 83.7689C52.6439 84.2418 52.8789 85.2435 52.406 86.0063C51.9331 86.769 50.9314 87.004 50.1686 86.5311C41.6009 81.2192 35.7499 71.7777 35.7499 60.9375C35.7499 44.2775 49.1524 30.875 65.8124 30.875C82.4723 30.875 95.8749 44.2775 95.8749 60.9375C95.8749 65.918 94.6711 70.5718 92.4287 74.7115C92.0013 75.5006 91.015 75.7938 90.2259 75.3664C89.4368 74.9389 89.1436 73.9527 89.571 73.1635C91.5537 69.5032 92.6249 65.382 92.6249 60.9375C92.6249 46.0725 80.6774 34.125 65.8124 34.125Z" fill="#150941"/>
<path fill-rule="evenodd" clip-rule="evenodd" d="M49.9127 84.3046C50.4694 83.6006 51.4913 83.4812 52.1953 84.0378C52.83 84.5397 53.2818 85.2456 53.6119 85.941C53.9514 86.6563 54.2187 87.4815 54.4259 88.3464C54.8405 90.0767 55.0501 92.1159 55.0501 94.0875H51.8001C51.8001 92.3215 51.61 90.542 51.2654 89.1036C51.093 88.3842 50.8908 87.7874 50.6759 87.3347C50.4516 86.8622 50.264 86.654 50.1795 86.5871C49.4755 86.0305 49.3561 85.0085 49.9127 84.3046ZM79.8247 94.0876V101.4C79.8247 102.465 79.4032 104.008 78.6378 105.297C77.8801 106.573 76.4902 108.062 74.3636 108.062H57.2611C55.1345 108.062 53.7446 106.573 52.9869 105.297C52.2215 104.008 51.8001 102.465 51.8001 101.4V94.0875H55.0501V101.4C55.0501 101.797 55.268 102.773 55.7813 103.637C56.3023 104.515 56.8304 104.812 57.2611 104.812H74.3636C74.7944 104.812 75.3225 104.515 75.8435 103.637C76.3568 102.773 76.5747 101.797 76.5747 101.4V94.0881L79.8247 94.0876ZM79.8247 94.0876C79.8247 92.3216 80.0147 90.542 80.3593 89.1036C80.5317 88.3842 80.734 87.7874 80.9489 87.3347C81.1731 86.8622 81.3607 86.654 81.4453 86.5871C82.1493 86.0305 82.2687 85.0085 81.712 84.3046C81.1554 83.6006 80.1334 83.4812 79.4295 84.0378C78.7948 84.5397 78.343 85.2456 78.0129 85.941C77.6733 86.6563 77.406 87.4815 77.1988 88.3464C76.7842 90.0767 76.5747 92.1165 76.5747 94.0881L79.8247 94.0876Z" fill="#150941"/>
</svg>
