<svg width="130" height="130" viewBox="0 0 130 130" fill="none" xmlns="http://www.w3.org/2000/svg">
<path fill-rule="evenodd" clip-rule="evenodd" d="M65 42.7217C55.4334 42.7217 47.6824 50.4727 47.6824 60.0393C47.6824 60.6694 47.7219 61.3216 47.7892 61.9545C47.7915 61.9758 47.7933 61.9971 47.7947 62.0183C48.7738 70.6418 56.1033 77.357 65 77.357C74.5667 77.357 82.3177 69.606 82.3177 60.0393C82.3177 50.4727 74.5667 42.7217 65 42.7217ZM44.5513 62.24C44.5529 62.2662 44.5552 62.2926 44.5581 62.319C45.6914 72.597 54.4079 80.607 65 80.607C76.3616 80.607 85.5677 71.4009 85.5677 60.0393C85.5677 48.6778 76.3616 39.4717 65 39.4717C53.6385 39.4717 44.4324 48.6778 44.4324 60.0393C44.4324 60.7804 44.4773 61.528 44.5513 62.24Z" fill="#150941"/>
<path fill-rule="evenodd" clip-rule="evenodd" d="M65.0003 80.6069C50.2155 80.6069 38.2185 92.5905 38.2185 107.389C38.2185 108.286 37.491 109.014 36.5935 109.014C35.696 109.014 34.9685 108.286 34.9685 107.389C34.9685 90.7945 48.4217 77.3569 65.0003 77.3569C81.5794 77.3569 95.032 90.8095 95.032 107.389C95.032 108.286 94.3045 109.014 93.407 109.014C92.5095 109.014 91.782 108.286 91.782 107.389C91.782 92.6045 79.7845 80.6069 65.0003 80.6069Z" fill="#150941"/>
<path d="M93.2654 35.2339C95.0603 35.2339 96.5154 33.7788 96.5154 31.9839C96.5154 30.189 95.0603 28.7339 93.2654 28.7339C91.4705 28.7339 90.0154 30.189 90.0154 31.9839C90.0154 33.7788 91.4705 35.2339 93.2654 35.2339Z" fill="#150941"/>
<path fill-rule="evenodd" clip-rule="evenodd" d="M104.072 55.7186C104.97 55.7258 105.691 56.4593 105.684 57.3567L105.568 71.647C105.561 72.5445 104.827 73.2661 103.93 73.2588C103.033 73.2515 102.311 72.5181 102.318 71.6207L102.434 57.3303C102.442 56.4329 103.175 55.7113 104.072 55.7186Z" fill="#150941"/>
<path fill-rule="evenodd" clip-rule="evenodd" d="M23.6881 19.9779C23.9954 19.6696 24.4134 19.4975 24.8486 19.5L104.33 19.9638C104.761 19.9663 105.174 20.1403 105.477 20.4475C105.78 20.7546 105.948 21.1697 105.945 21.6011L105.728 50.1963C105.721 51.0937 104.988 51.8157 104.09 51.8089C103.193 51.8021 102.471 51.069 102.478 50.1716L102.683 23.2043L26.4792 22.7596L26.9278 71.619C26.9361 72.5165 26.2152 73.2506 25.3178 73.2589C24.4204 73.2671 23.6862 72.5463 23.678 71.6489L23.2142 21.1399C23.2102 20.7047 23.3809 20.2861 23.6881 19.9779Z" fill="#150941"/>
<path fill-rule="evenodd" clip-rule="evenodd" d="M24.1388 70.5004C24.4447 70.1862 24.8646 70.009 25.303 70.009H39.5934C40.4908 70.009 41.2184 70.7366 41.2184 71.634C41.2184 72.5315 40.4908 73.259 39.5934 73.259H25.9889L15.2253 84.3139H31.0424C31.9398 84.3139 32.6674 85.0414 32.6674 85.9389C32.6674 86.8363 31.9398 87.5639 31.0424 87.5639H11.375C10.7217 87.5639 10.132 87.1726 9.87792 86.5707C9.62389 85.9688 9.75501 85.2733 10.2108 84.8053L24.1388 70.5004Z" fill="#150941"/>
<path d="M32.4918 85.9391C32.4918 86.7395 31.8429 87.3884 31.0425 87.3884C30.242 87.3884 29.5931 86.7395 29.5931 85.9391C29.5931 85.1386 30.242 84.4897 31.0425 84.4897C31.8429 84.4897 32.4918 85.1386 32.4918 85.9391Z" fill="#150941"/>
<path d="M32.4918 85.9391C32.4918 86.7395 31.8429 87.3884 31.0425 87.3884C30.242 87.3884 29.5931 86.7395 29.5931 85.9391C29.5931 85.1386 30.242 84.4897 31.0425 84.4897C31.8429 84.4897 32.4918 85.1386 32.4918 85.9391Z" fill="#150941"/>
<path d="M32.4918 85.9391C32.4918 86.7395 31.8429 87.3884 31.0425 87.3884C30.242 87.3884 29.5931 86.7395 29.5931 85.9391C29.5931 85.1386 30.242 84.4897 31.0425 84.4897C31.8429 84.4897 32.4918 85.1386 32.4918 85.9391Z" fill="#150941"/>
<path d="M32.4918 85.9391C32.4918 86.7395 31.8429 87.3884 31.0425 87.3884C30.242 87.3884 29.5931 86.7395 29.5931 85.9391C29.5931 85.1386 30.242 84.4897 31.0425 84.4897C31.8429 84.4897 32.4918 85.1386 32.4918 85.9391Z" fill="#150941"/>
<path d="M32.4918 85.9391C32.4918 86.7395 31.8429 87.3884 31.0425 87.3884C30.242 87.3884 29.5931 86.7395 29.5931 85.9391C29.5931 85.1386 30.242 84.4897 31.0425 84.4897C31.8429 84.4897 32.4918 85.1386 32.4918 85.9391Z" fill="#150941"/>
<path fill-rule="evenodd" clip-rule="evenodd" d="M36.5625 85.9385C36.5625 85.041 37.29 84.3135 38.1875 84.3135H39.9702C40.8676 84.3135 41.5952 85.041 41.5952 85.9385C41.5952 86.8359 40.8676 87.5635 39.9702 87.5635H38.1875C37.29 87.5635 36.5625 86.8359 36.5625 85.9385Z" fill="#150941"/>
<path fill-rule="evenodd" clip-rule="evenodd" d="M88.0281 71.634C88.0281 70.7366 88.7556 70.009 89.6531 70.009H103.943C104.367 70.009 104.774 70.1745 105.077 70.4701L119.759 84.775C120.233 85.2363 120.379 85.9386 120.13 86.551C119.881 87.1634 119.286 87.5639 118.625 87.5639H90.0299C89.1324 87.5639 88.4049 86.8363 88.4049 85.9389C88.4049 85.0414 89.1324 84.3139 90.0299 84.3139H114.629L103.283 73.259H89.6531C88.7556 73.259 88.0281 72.5315 88.0281 71.634Z" fill="#150941"/>
<path fill-rule="evenodd" clip-rule="evenodd" d="M31.2 28.7339C31.2 27.8364 31.9275 27.1089 32.825 27.1089H75.725C76.6224 27.1089 77.35 27.8364 77.35 28.7339C77.35 29.6313 76.6224 30.3589 75.725 30.3589H32.825C31.9275 30.3589 31.2 29.6313 31.2 28.7339Z" fill="#150941"/>
<path fill-rule="evenodd" clip-rule="evenodd" d="M31.2 35.8936C31.2 34.9961 31.9275 34.2686 32.825 34.2686H47.1298C48.0272 34.2686 48.7548 34.9961 48.7548 35.8936C48.7548 36.791 48.0272 37.5186 47.1298 37.5186H32.825C31.9275 37.5186 31.2 36.791 31.2 35.8936Z" fill="#150941"/>
<path fill-rule="evenodd" clip-rule="evenodd" d="M31.2 43.0386C31.2 42.1411 31.9275 41.4136 32.825 41.4136H39.9701C40.8676 41.4136 41.5951 42.1411 41.5951 43.0386C41.5951 43.936 40.8676 44.6636 39.9701 44.6636H32.825C31.9275 44.6636 31.2 43.936 31.2 43.0386Z" fill="#150941"/>
</svg>
