<svg width="130" height="130" viewBox="0 0 130 130" fill="none" xmlns="http://www.w3.org/2000/svg">
<path fill-rule="evenodd" clip-rule="evenodd" d="M39 94.25C39 93.3525 39.7275 92.625 40.625 92.625H89.375C90.2725 92.625 91 93.3525 91 94.25V107.25C91 108.147 90.2725 108.875 89.375 108.875H40.625C39.7275 108.875 39 108.147 39 107.25V94.25ZM42.25 95.875V105.625H87.75V95.875H42.25Z" fill="#150941"/>
<path fill-rule="evenodd" clip-rule="evenodd" d="M45.5 100.75C45.5 99.8525 46.2275 99.125 47.125 99.125H82.875C83.7725 99.125 84.5 99.8525 84.5 100.75C84.5 101.647 83.7725 102.375 82.875 102.375H47.125C46.2275 102.375 45.5 101.647 45.5 100.75Z" fill="#150941"/>
<path fill-rule="evenodd" clip-rule="evenodd" d="M92.625 50.375C93.5225 50.375 94.25 51.1025 94.25 52V65C94.25 65.8975 93.5225 66.625 92.625 66.625C91.7275 66.625 91 65.8975 91 65V52C91 51.1025 91.7275 50.375 92.625 50.375Z" fill="#150941"/>
<path d="M94.25 45.5C94.25 46.3975 93.5225 47.125 92.625 47.125C91.7275 47.125 91 46.3975 91 45.5C91 44.6025 91.7275 43.875 92.625 43.875C93.5225 43.875 94.25 44.6025 94.25 45.5Z" fill="#150941"/>
<path fill-rule="evenodd" clip-rule="evenodd" d="M37.6594 26C33.0662 26 29.25 29.5837 29.25 34.125V78C29.25 78.8975 28.5225 79.625 27.625 79.625C26.7275 79.625 26 78.8975 26 78V34.125C26 27.6497 31.4135 22.75 37.6594 22.75H58.5C59.3975 22.75 60.125 23.4775 60.125 24.375C60.125 25.2725 59.3975 26 58.5 26H37.6594Z" fill="#150941"/>
<path fill-rule="evenodd" clip-rule="evenodd" d="M50.375 30.875C50.375 29.9775 51.1025 29.25 52 29.25H78C78.8975 29.25 79.625 29.9775 79.625 30.875V39C79.625 39.8975 78.8975 40.625 78 40.625H52C51.1025 40.625 50.375 39.8975 50.375 39V30.875ZM53.625 32.5V37.375H76.375V32.5H53.625Z" fill="#150941"/>
<path fill-rule="evenodd" clip-rule="evenodd" d="M43.875 52C43.875 47.5127 47.5127 43.875 52 43.875H78C82.4873 43.875 86.125 47.5127 86.125 52V78C86.125 82.4873 82.4873 86.125 78 86.125H52C47.5127 86.125 43.875 82.4873 43.875 78V52ZM52 47.125C49.3076 47.125 47.125 49.3076 47.125 52V78C47.125 80.6924 49.3076 82.875 52 82.875H78C80.6924 82.875 82.875 80.6924 82.875 78V52C82.875 49.3076 80.6924 47.125 78 47.125H52Z" fill="#150941"/>
<path fill-rule="evenodd" clip-rule="evenodd" d="M57.6875 20.3125C57.6875 16.3275 61.015 13 65 13C68.985 13 72.3125 16.3275 72.3125 20.3125V30.875C72.3125 31.7725 71.585 32.5 70.6875 32.5H59.3125C58.415 32.5 57.6875 31.7725 57.6875 30.875V20.3125ZM65 16.25C62.81 16.25 60.9375 18.1225 60.9375 20.3125V29.25H69.0625V20.3125C69.0625 18.1225 67.19 16.25 65 16.25Z" fill="#150941"/>
<path fill-rule="evenodd" clip-rule="evenodd" d="M69.875 24.375C69.875 23.4775 70.6025 22.75 71.5 22.75H92.625C99.0651 22.75 104 27.8828 104 34.125V107.25C104 110.498 102.683 113.018 100.493 114.679C98.3614 116.296 95.5421 117 92.625 117H37.375C34.3647 117 31.5403 116.25 29.4294 114.605C27.2684 112.922 26 110.408 26 107.25V91C26 90.1025 26.7275 89.375 27.625 89.375C28.5225 89.375 29.25 90.1025 29.25 91V107.25C29.25 109.455 30.0941 111.003 31.4268 112.042C32.8097 113.119 34.8603 113.75 37.375 113.75H92.625C95.0704 113.75 97.1261 113.154 98.5288 112.09C99.8733 111.07 100.75 109.527 100.75 107.25V34.125C100.75 29.6422 97.2349 26 92.625 26H71.5C70.6025 26 69.875 25.2725 69.875 24.375Z" fill="#150941"/>
<path fill-rule="evenodd" clip-rule="evenodd" d="M65 55.25C62.3076 55.25 60.125 57.4326 60.125 60.125C60.125 62.8174 62.3076 65 65 65C67.6924 65 69.875 62.8174 69.875 60.125C69.875 57.4326 67.6924 55.25 65 55.25ZM56.875 60.125C56.875 55.6377 60.5127 52 65 52C69.4873 52 73.125 55.6377 73.125 60.125C73.125 64.6123 69.4873 68.25 65 68.25C60.5127 68.25 56.875 64.6123 56.875 60.125Z" fill="#150941"/>
<path fill-rule="evenodd" clip-rule="evenodd" d="M53.625 76.375C53.625 70.3768 58.6553 65 65 65C71.3265 65 76.375 70.1873 76.375 76.375C76.375 77.2725 75.6475 78 74.75 78C73.8525 78 73.125 77.2725 73.125 76.375C73.125 71.9575 69.5069 68.25 65 68.25C60.5113 68.25 56.875 72.11 56.875 76.375C56.875 77.2725 56.1475 78 55.25 78C54.3525 78 53.625 77.2725 53.625 76.375Z" fill="#150941"/>
</svg>
